<?xml version="1.0" encoding="utf-8"?>
<!-- Generator: Adobe Illustrator 17.1.0, SVG Export Plug-In . SVG Version: 6.00 Build 0)  -->
<!DOCTYPE svg PUBLIC "-//W3C//DTD SVG 1.1//EN" "http://www.w3.org/Graphics/SVG/1.1/DTD/svg11.dtd">
<svg version="1.1" id="Layer_1" xmlns="http://www.w3.org/2000/svg" xmlns:xlink="http://www.w3.org/1999/xlink" x="0px" y="0px"
	 viewBox="123 291.2 421 278" enable-background="new 123 291.2 421 278" xml:space="preserve">
<g>
	<g>
		<polygon fill="#3AA004" points="123,561.6 544,561.6 477.4,291.2 189.3,291.2 		"/>
	</g>
	<path fill="#76BA54" d="M468.4,297.3H197.2l-57.8,244.4h386.4L468.4,297.3z M369.8,298.9v7.7h-72.7v-7.7H369.8z M198.1,298.9h61.2
		l-4.4,25.9h50.2c7.1,3.7,17.1,5.6,28.1,5.6c11,0,21-1.9,28.1-5.6h50.2l-4.1-25.9h-1.5l3.7,24.4H256.2l4.1-24.4h34.9v9h75.6v-9h96.3
		l20.7,89.5H371.6c-2.7-9.5-19-16.7-38.5-16.7c-19.5,0-35.9,7.4-38.5,16.7H176.7L198.1,298.9z M308.9,324.6h49
		c-6.8,2.6-15.1,4-24.4,4C324,328.8,315.5,327.5,308.9,324.6z M371.1,391.1c0,9.8-16.8,18-37.6,18s-37.6-7.9-37.6-18
		c0-0.5,0-0.8,0.2-1.3h75.1C371.1,390.5,371.1,390.8,371.1,391.1z M296.2,388.4c2.7-8.7,18.5-15.1,37.3-15.1
		c18.8,0,34.4,6.6,37.3,15.1H296.2z M176.7,390h117.8c0,0.5-0.2,0.8-0.2,1.3c0,10.9,17.6,19.3,39,19.3s39-8.7,39-19.3
		c0-0.5,0-0.8-0.2-1.3h116.3l35.1,150.4h-75.9l-11.5-54.5h-67.8l0,0c-6.1-6.9-19.3-11.1-34.9-11.1c-15.4,0-29,4.5-35.4,11.1l0,0
		h-67.8l-11.7,54.5h-77.8L176.7,390z M382.8,520.5h-100l-2.2,19.9h-60.5l11.5-53.2h203.7l11.2,53.2H385L382.8,520.5z M383.5,540.4
		H282.3l2-18.3h97.3L383.5,540.4z M300.1,485.6c6.3-5.8,19.3-9.8,33.4-9.8c14.6,0,26.8,3.7,32.9,9.8H300.1z"/>
	<g>
		<polygon fill="#2C6A34" points="543.3,569.2 123.5,569.2 123,561.6 544,561.6 		"/>
	</g>
</g>
<rect x="437.3" y="1013.1" display="none" opacity="0.4" fill="#B61E1E" enable-background="new    " width="86.9" height="37.6"/>
<rect x="524.2" y="981.3" display="none" opacity="0.4" fill="#B61E1E" enable-background="new    " width="215.6" height="39.7"/>
<rect x="739.8" y="1013.1" display="none" opacity="0.4" fill="#B61E1E" enable-background="new    " width="85.2" height="37.6"/>
</svg>
